<?xml version="1.0" encoding="utf-8"?>
<!-- Generator: Adobe Illustrator 24.0.3, SVG Export Plug-In . SVG Version: 6.00 Build 0)  -->
<svg version="1.1" id="Layer_2" xmlns="http://www.w3.org/2000/svg" xmlns:xlink="http://www.w3.org/1999/xlink" x="0px" y="0px"
	 viewBox="0 0 832 229" style="enable-background:new 0 0 832 229;" xml:space="preserve">
<style type="text/css">
	.st0{opacity:0.5;}
	.st1{fill:#FF00FF;}
	.st2{fill:#020E34;}
	.st3{fill:#EE68ED;}
	.st4{fill:url(#SVGID_1_);}
	.st5{fill:url(#SVGID_2_);}
	.st6{fill:url(#SVGID_3_);}
	.st7{fill:url(#SVGID_4_);}
	.st8{fill:url(#SVGID_5_);}
	.st9{fill:url(#SVGID_6_);}
	.st10{fill:url(#SVGID_7_);}
	.st11{fill:url(#SVGID_8_);}
	.st12{fill:url(#SVGID_9_);}
	.st13{fill:url(#SVGID_10_);}
	.st14{fill:url(#SVGID_11_);}
	.st15{fill:url(#SVGID_12_);}
	.st16{fill:url(#SVGID_13_);}
	.st17{fill:url(#SVGID_14_);}
	.st18{fill:url(#SVGID_15_);}
	.st19{fill:url(#SVGID_16_);}
	.st20{fill:none;stroke:#FFFFFF;stroke-width:2.0914;stroke-linecap:round;stroke-linejoin:round;}
</style>
<g id="Layer_1">
	<g>
		<g>
			<g>
				<path d="M147,110.5c0.3,31.3-16.9,54.6-42.3,56.5c-24.9,1.9-43.4-15.4-43.5-41.4C61,99.6,78.7,76.4,103.6,71.5
					c21.2-4.2,38.8,8.4,42.4,30.2c-9.4,1.2-14.1,1.9-23.5,3.2c-3-7.4-10.3-11.3-18.6-9.9c-12.1,2-20.2,13.1-20.1,27.3
					c0.1,14,8.2,22.7,20.5,21.4c8.5-0.9,15.8-6.3,18.3-13.8c-8.1,0.9-12.1,1.4-20.2,2.4c-0.1-6.3-0.1-9.5-0.1-15.8
					C120.2,113.8,129.1,112.7,147,110.5z"/>
				<path d="M204.4,141.9c-11.6,0.7-17.4,1.1-28.9,2c-1.7,6.5-2.6,9.8-4.4,16.2c-9.6,0.6-14.4,0.9-24,1.5
					c12.4-39.1,18.6-59.3,31-100.5c8.8-1.3,13.2-1.9,22-3c13.5,38.4,20.2,58.2,33.7,98.7c-9.9,0.4-14.9,0.7-24.8,1.2
					C207.2,151.5,206.2,148.3,204.4,141.9z M189.4,90.6c-3.5,12.7-5.2,19-8.6,31.6c7.2-0.7,10.8-1,18-1.6
					C195,108.5,193.1,102.5,189.4,90.6z"/>
				<path d="M322.5,153.9c-2.7-24.6-4-36.8-6.7-61.3c-8.6,25-12.9,37.5-21.4,62.2c-2.7,0.1-4,0.1-6.7,0.2
					c-8.8-24.1-13.2-36.1-22.1-59.6c-2.3,24.2-3.5,36.3-5.8,60.4c-9.1,0.3-13.7,0.5-22.8,0.9c4.6-41.4,6.9-62.2,11.5-104.1
					c9-0.9,13.5-1.3,22.6-2.1c7.9,22.2,11.8,33.4,19.7,56c7.6-23.4,11.5-35.2,19.1-58.8c9-0.5,13.6-0.8,22.6-1.2
					c5.1,42.7,7.6,64.1,12.7,107C336.1,153.6,331.6,153.7,322.5,153.9z"/>
				<path d="M409.7,127.1c0,10.3,0,15.5,0,25.9c-21.3,0-32,0-53.4,0.3c-0.1-43.1-0.2-64.6-0.3-107.7c21.1-0.7,31.6-0.8,52.7-0.8
					c0,10.3,0,15.5,0,25.8c-12,0-18,0-30.1,0.2c0,6.4,0,9.5,0,15.9c10.8-0.1,16.2-0.2,27-0.2c0,9.8,0,14.7,0,24.4
					c-10.8,0-16.2,0-27,0.1c0,6.5,0,9.7,0,16.2C391.1,127.1,397.3,127.1,409.7,127.1z"/>
				<path d="M488.8,156.6c-26.3-0.5-45-24.4-44.9-57.4c0.1-33,19-56.3,45.5-54.9c26.4,1.4,45,26.1,44.8,58.3
					C533.9,134.8,515,157.1,488.8,156.6C488.8,156.6,488.8,156.6,488.8,156.6z M488.9,129.2c12.5,0.4,21.6-11.2,21.7-27.8
					c0.1-16.6-8.9-29.1-21.4-29.7c-12.5-0.6-21.7,11.3-21.8,28S476.5,128.8,488.9,129.2C488.9,129.2,488.9,129.2,488.9,129.2z"/>
				<path d="M618.6,59.2c-12.9,38.2-19.3,57.9-32.2,98.1c-8.4-0.4-12.6-0.6-21-0.9C553,114.4,546.8,93.1,534.2,50
					c10.3,0.8,15.5,1.3,25.8,2.3c6.5,26.4,9.7,39.6,16.2,65.6c6.7-25.1,10.1-37.5,16.8-62C603.3,57.1,608.4,57.8,618.6,59.2z"/>
				<path d="M679.1,140.3c-0.1,9-0.1,13.5-0.2,22.5c-21.2-1.5-31.8-2.2-53.1-3.4c0.4-39.6,0.6-59.4,1-99c20.9,2.9,31.3,4.6,52.1,8.2
					c-0.1,9-0.1,13.4-0.2,22.4c-11.9-1.8-17.8-2.6-29.7-4.2c-0.1,5.7-0.1,8.6-0.1,14.3c10.7,1.3,16,2,26.7,3.4
					c-0.1,8.5-0.1,12.8-0.2,21.3c-10.7-1.2-16-1.7-26.7-2.8c-0.1,5.8-0.1,8.7-0.1,14.5C660.7,138.5,666.9,139.1,679.1,140.3z"/>
				<path d="M722.5,138.8c-3.2-0.4-4.9-0.6-8.1-1c-0.1,11-0.1,16.5-0.2,27.6c-9-0.7-13.4-1.1-22.4-1.7c0.3-37.1,0.5-55.6,0.9-92.6
					c14,2.6,21.1,4,35,6.9c17.4,3.6,29.9,18.8,29.8,36.5c-0.1,10.4-4.9,18.1-13,22.1c6.3,13.4,9.5,20,15.9,32.9
					c-10-0.9-15-1.4-24.9-2.2C730.3,156,727.7,150.3,722.5,138.8z M714.6,116.9c4.1,0.6,6.1,0.9,10.2,1.5c6.2,0.9,9.8-2.6,9.9-8.1
					c0-5.5-3.5-10.1-9.7-11.2c-4.1-0.7-6.1-1.1-10.2-1.8C714.7,105.2,714.6,109.1,714.6,116.9z"/>
			</g>
			<g class="st0">
				
					<image style="overflow:visible;" width="789" height="235" xlink:href="B2E792DD460DD666.png"  transform="matrix(1 0 0 1 10.1549 -7.5779)">
				</image>
			</g>
			<g>
				<path class="st1" d="M104.7,179.8c-29.4,1.8-51.6-19.4-51.8-49.6c-0.1-14.8,5-29.2,14.2-41.1c9.3-11.9,22.1-20.5,36.4-23.4
					c25.3-5.2,46.2,10.1,50.6,36.8c0.3,1.8,0.2,3.7-0.4,5.4c0.9,1.5,1.5,3.4,1.5,5.3c0.2,17.8-4.7,34.5-13.7,46.5
					C132.4,172,119.3,178.9,104.7,179.8z M104.1,107.6c-7.6,1.1-12,7.4-12,16.8c0,3.7,0.8,6.8,2.2,9c0-5-0.1-7.5-0.1-12.5
					c0-5,3.6-9.7,8.1-10.4c3.8-0.6,5.7-0.8,9.6-1.4C109.9,107.7,107.1,107.2,104.1,107.6z"/>
				<path class="st1" d="M209.1,172.1c-3.5,0.1-6.7-2.5-7.9-6.6c-1.1-3.7-1.6-5.6-2.7-9.2c-6.8,0.4-10.2,0.6-17.1,1
					c-1,3.8-1.5,5.6-2.5,9.4c-1.1,4.1-4.2,7-7.8,7.1c-9.6,0.5-14.4,0.7-24.1,1.2c-2.7,0.1-5.3-1.3-6.9-3.8c-1.6-2.5-1.9-5.9-0.9-8.9
					c12.4-38.8,18.6-58.9,31-99.9c1.2-4,4.2-7,7.6-7.5c8.8-1.3,13.2-1.9,22-3.1c3.4-0.5,6.5,1.7,7.8,5.4
					c13.5,38.7,20.2,58.7,33.7,99.3c1.1,3.2,0.8,6.9-0.7,9.8c-1.5,2.9-4.1,4.7-6.8,4.8C224,171.5,219,171.7,209.1,172.1z"/>
				<path class="st1" d="M287.8,169.7c-3.2,0.1-6.2-2.3-7.6-6c-4-10.8-5.9-16.1-9.9-26.8c-0.9,9.6-1.4,14.4-2.3,24
					c-0.5,5.3-4,9.3-8.1,9.4c-9.1,0.3-13.7,0.4-22.8,0.7c-2.4,0.1-4.7-1.2-6.3-3.4c-1.6-2.2-2.3-5.2-2-8.2
					c4.6-41.1,6.9-61.9,11.5-103.6c0.6-5.2,4-9.3,8.1-9.8c9-0.9,13.5-1.4,22.6-2.2c3.3-0.3,6.3,2,7.7,5.8c4.8,13.5,7.2,20.3,11.9,34
					c4.6-14.2,6.9-21.4,11.6-35.7c1.3-4,4.3-6.8,7.6-7c9.1-0.6,13.6-0.8,22.6-1.2c4.1-0.2,7.7,3.6,8.3,8.9
					c5.1,42.8,7.6,64.2,12.6,107.2c0.4,3.1-0.3,6.3-1.9,8.8c-1.6,2.4-3.9,3.8-6.3,3.9c-9.1,0.1-13.6,0.2-22.7,0.3
					c-4.2,0.1-7.7-3.9-8.3-9.2c-1.1-9.8-1.6-14.7-2.7-24.4c-3.9,11.2-5.8,16.8-9.6,27.9c-1.3,3.9-4.3,6.4-7.5,6.4
					C291.8,169.6,290.5,169.6,287.8,169.7z"/>
				<path class="st1" d="M356.4,168.3c-4.6,0-8.3-4.8-8.3-10.8c-0.1-43-0.2-64.5-0.4-107.6c0-6,3.7-11.1,8.3-11.2
					c21.1-0.7,31.6-0.8,52.7-0.8c4.6,0,8.4,5,8.4,11c0,10.3,0,15.5,0,25.8c0,4.2-1.8,7.9-4.5,9.7c0.9,1.8,1.4,3.9,1.4,6.2
					c0,9.8,0,14.7,0,24.4c0,2.2-0.5,4.2-1.3,5.9c3.1,1.6,5.4,5.6,5.3,10.3c0,10.3,0,15.5,0,25.8c0,6.1-3.7,11-8.3,11
					C388.4,168,377.7,168.1,356.4,168.3z"/>
				<path class="st1" d="M488.7,171.5c-30.9-0.5-53.3-29.1-53.2-68.3s22.7-67.4,53.8-65.7c31,1.7,53.3,31.5,53,69.5
					C542.1,145.1,519.6,172,488.7,171.5C488.7,171.5,488.7,171.5,488.7,171.5z M489.1,86.6c-7.9-0.3-13.4,6.9-13.4,17.5
					c0,10.6,5.4,18.1,13.3,18.3c0,0,0,0,0,0c3.8,0.1,7.1-1.4,9.5-4.5c2.4-3.1,3.7-7.6,3.8-12.9C502.3,94.4,497,86.9,489.1,86.6z"/>
				<path class="st1" d="M565.3,170.7c-3.4-0.1-6.5-2.9-7.7-6.9c-12.5-42-18.7-63.3-31.3-106.5c-1-3.4-0.6-7.1,0.9-9.9
					c1.6-2.8,4.2-4.3,6.9-4.1c10.3,0.9,15.5,1.4,25.8,2.4c3.6,0.4,6.8,3.6,7.8,8c3.4,13.8,5.1,20.6,8.4,34.2
					c3.5-13,5.3-19.5,8.8-32.3c1.1-4.2,4.4-6.7,8-6.2c10.2,1.3,15.3,1.9,25.6,3.4c2.7,0.4,5.3,2.4,6.8,5.3c1.5,2.9,1.8,6.5,0.8,9.4
					c-12.9,37.9-19.3,57.5-32.2,97.6c-1.3,3.9-4.4,6.4-7.8,6.3C577.9,171.1,573.7,171,565.3,170.7z"/>
				<path class="st1" d="M625.7,173.1c-4.6-0.2-8.2-4.9-8.2-10.5c0.4-39.9,0.6-59.8,0.9-99.7c0.1-5.6,3.8-9.6,8.4-8.9
					c20.9,3.1,31.3,4.8,52.1,8.5c4.5,0.8,8.2,5.8,8.1,11c-0.1,8.9-0.1,13.3-0.2,22.2c0,3.7-1.9,6.6-4.5,7.8c0.9,1.7,1.4,3.6,1.4,5.5
					c-0.1,8.5-0.1,12.7-0.2,21.1c0,1.9-0.5,3.6-1.4,5c3.1,1.7,5.3,5.4,5.2,9.4c-0.1,8.9-0.1,13.4-0.2,22.3c0,5.2-3.8,9.2-8.3,9
					C657.6,174.6,647,174.1,625.7,173.1z"/>
				<path class="st1" d="M735.4,179.4c-3-0.2-5.8-2.2-7.2-5.3c-2.3-4.9-3.4-7.4-5.7-12.4c0,3.1,0,4.6-0.1,7.7c0,5-3.8,8.8-8.3,8.5
					c-9-0.6-13.4-0.9-22.4-1.4c-4.6-0.3-8.2-4.7-8.2-10c0.4-37.4,0.5-56.1,0.9-93.5c0-5.2,3.8-8.8,8.3-7.9c14,2.7,21.1,4.1,35,7.1
					c22.1,4.8,38,24.8,37.9,46.8c0,10.2-3.8,18.6-10.6,24.5c5,10.4,7.5,15.6,12.6,25.6c1.4,2.8,1.3,5.9-0.2,8.3
					c-1.5,2.4-4.2,3.8-7.1,3.6C750.3,180.4,745.3,180.1,735.4,179.4z M724.8,112.8c0.9,0.1,1.4,0,1.6,0c0-0.1,0-0.2,0-0.4
					c0-0.2,0-0.3,0-0.3c-0.2-0.1-0.6-0.4-1.6-0.5c-0.8-0.1-1.2-0.2-2-0.3c0,0.5,0,0.8,0,1.3C723.6,112.6,724,112.7,724.8,112.8z"/>
			</g>
			<g>
				<path class="st2" d="M105.7,176.2c-14,0.9-26.8-3.8-36.1-12.6c-9.4-8.9-14.6-21.4-14.6-35.9c-0.1-14.5,4.9-28.7,13.9-40.4
					c9.1-11.7,21.7-20.1,35.6-23c24.8-5.1,45.2,9.9,49.6,36c0.3,1.8,0.1,3.7-0.6,5.4c1,1.4,1.6,3.2,1.6,5.2
					c0.2,17.5-4.6,33.8-13.4,45.7C132.9,168.5,120,175.3,105.7,176.2z M105.1,104c-8.1,1.3-13.1,8.2-13,18.2c0,5.5,1.6,9.5,4.3,12
					c0,0-0.1-15.7-0.1-15.7c0-4.4,3.2-8.5,7.1-9.1c4.9-0.7,7.3-1.1,12.1-1.8C113.2,104.7,109.4,103.3,105.1,104z"/>
				<path class="st2" d="M210.1,168.2c-3.1,0.1-5.9-2.2-6.9-5.8c-1.2-4-1.8-6.1-2.9-10.1c-7.4,0.4-11.1,0.7-18.5,1.1
					c-1.1,4.1-1.6,6.2-2.7,10.3c-1,3.6-3.7,6.1-6.8,6.3c-9.6,0.5-14.4,0.8-24.1,1.3c-2.4,0.1-4.6-1.1-6-3.3
					c-1.4-2.2-1.7-5.1-0.8-7.8c12.4-38.9,18.6-59,31-100.1c1.1-3.5,3.7-6.1,6.7-6.6c8.8-1.3,13.2-2,22-3.1c3-0.4,5.6,1.5,6.8,4.7
					c13.5,38.7,20.2,58.6,33.7,99.3c0.9,2.8,0.7,6-0.7,8.6c-1.3,2.6-3.6,4.2-6,4.2C225,167.5,220,167.7,210.1,168.2z"/>
				<path class="st2" d="M288.9,165.6c-2.8,0.1-5.4-2-6.6-5.3c-4.6-12.4-6.8-18.6-11.4-30.9c-1.1,11.4-1.7,17.2-2.8,28.6
					c-0.4,4.6-3.5,8.2-7.1,8.3c-9.1,0.3-13.7,0.4-22.8,0.8c-2.1,0.1-4.1-1-5.5-3c-1.4-2-2-4.6-1.7-7.2c4.6-41.2,6.9-62,11.5-103.8
					c0.5-4.5,3.5-8.2,7.1-8.6c9-0.9,13.5-1.4,22.6-2.2c2.9-0.3,5.6,1.7,6.7,5.1c5.2,14.6,7.7,21.9,12.9,36.7
					c5-15.4,7.5-23.1,12.5-38.6c1.1-3.5,3.8-5.9,6.7-6.1c9.1-0.6,13.6-0.8,22.6-1.2c3.6-0.2,6.7,3.2,7.3,7.8
					c5.1,42.8,7.6,64.2,12.7,107.2c0.3,2.7-0.3,5.6-1.7,7.7c-1.4,2.1-3.4,3.4-5.5,3.4c-9.1,0.1-13.6,0.2-22.7,0.4
					c-3.6,0.1-6.7-3.4-7.2-8.1c-1.3-11.6-1.9-17.4-3.2-29c-4.4,12.9-6.7,19.4-11.1,32.2c-1.2,3.4-3.7,5.6-6.6,5.6
					C292.8,165.5,291.5,165.6,288.9,165.6z"/>
				<path class="st2" d="M357.4,164.2c-4,0-7.3-4.2-7.3-9.5c-0.1-43-0.2-64.6-0.3-107.6c0-5.3,3.2-9.7,7.3-9.8
					c21.1-0.7,31.6-0.8,52.7-0.8c4,0,7.3,4.3,7.3,9.6c0,10.3,0,15.5,0,25.8c0,4.3-2.2,8-5.2,9.2c1.3,1.7,2.1,4.1,2.1,6.8
					c0,9.8,0,14.7,0,24.4c0,2.6-0.8,5-2.1,6.7c3.5,0.7,6.1,4.7,6.1,9.5c0,10.3,0,15.5,0,25.8c0,5.3-3.3,9.6-7.3,9.6
					C389.4,163.9,378.7,164,357.4,164.2z"/>
				<path class="st2" d="M489.8,167.4c-30.3-0.5-52.3-28.5-52.2-67c0.1-38.4,22.3-66,52.8-64.3c30.4,1.7,52.3,30.9,52,68.2
					C542.1,141.6,520,168,489.8,167.4C489.8,167.4,489.8,167.4,489.8,167.4z M490.2,82.6c-8.5-0.4-14.4,7.4-14.5,18.8
					s5.8,19.5,14.3,19.7c0,0,0,0,0,0c4.1,0.1,7.7-1.6,10.2-4.9c2.6-3.4,4-8.1,4.1-13.8C504.4,91,498.7,83,490.2,82.6z"/>
				<path class="st2" d="M566.4,166.8c-3-0.1-5.6-2.5-6.7-6.1c-12.4-42-18.7-63.3-31.3-106.4c-0.9-2.9-0.5-6.2,0.8-8.6
					c1.4-2.4,3.6-3.8,6-3.6c10.3,0.9,15.5,1.4,25.8,2.4c3.1,0.3,5.9,3.2,6.9,7c3.8,15.3,5.7,23,9.4,38.2c3.9-14.5,5.9-21.7,9.8-36
					c1-3.6,3.8-5.8,7-5.4c10.2,1.3,15.3,2,25.6,3.4c2.4,0.3,4.6,2.1,5.9,4.7c1.3,2.6,1.6,5.7,0.7,8.2
					c-12.9,37.9-19.3,57.5-32.2,97.5c-1.1,3.4-3.8,5.6-6.8,5.5C579,167.3,574.8,167.1,566.4,166.8z"/>
				<path class="st2" d="M626.8,169.4c-4-0.2-7.2-4.3-7.2-9.2c0.4-39.8,0.6-59.7,0.9-99.5c0-4.9,3.3-8.4,7.3-7.8
					c20.9,3.1,31.3,4.8,52.1,8.6c4,0.7,7.2,5,7.1,9.6c-0.1,8.9-0.1,13.3-0.2,22.2c0,3.7-2.2,6.6-5.2,7.2c1.3,1.7,2,3.9,2,6.1
					c-0.1,8.5-0.1,12.7-0.2,21.1c0,2.3-0.8,4.2-2.1,5.6c3.4,1,6,4.7,6,8.8c-0.1,8.9-0.1,13.4-0.2,22.3c0,4.6-3.3,8.1-7.3,7.8
					C658.6,171,648,170.4,626.8,169.4z"/>
				<path class="st2" d="M736.4,176.1c-2.7-0.2-5.1-2-6.3-4.6c-3-6.6-4.6-9.9-7.6-16.6c0,4.9-0.1,7.3-0.1,12.2
					c0,4.4-3.3,7.7-7.3,7.4c-9-0.6-13.4-0.9-22.4-1.5c-4-0.3-7.2-4.2-7.1-8.7c0.3-37.3,0.5-56,0.9-93.3c0-4.6,3.3-7.7,7.3-6.9
					c14,2.7,21,4.2,35,7.2c21.5,4.7,37,24.2,36.9,45.6c0,10.1-3.9,18.5-10.8,24.2c5.2,10.8,7.8,16.1,13,26.5
					c1.2,2.4,1.1,5.2-0.2,7.3c-1.3,2.1-3.7,3.3-6.2,3.1C751.4,177.3,746.4,176.9,736.4,176.1z M725.8,111.8c2.6,0.4,2.6-0.6,2.6-1.4
					c0-0.7,0-1.7-2.6-2.2c-1.2-0.2-1.8-0.3-3-0.5c0,1.4,0,2.1,0,3.5C724,111.5,724.6,111.6,725.8,111.8z"/>
			</g>
			<g>
				<path class="st3" d="M104.7,169.4c-26.3,1.9-45.4-16.2-45.6-43.4c-0.2-27.3,18.5-51.6,44.5-56.8c22.3-4.5,40.6,8.7,44.5,31.8
					c0.1,0.7,0,1.4-0.4,2c-0.4,0.6-1,1-1.6,1.1c-9.4,1.2-14.1,1.8-23.5,3.1c-0.8,0.1-1.6-0.3-1.9-1.2c-2.7-6.6-9.2-10-16.7-8.8
					C93.1,99,85.9,109,86,121.9c0.1,13,7.3,20.6,18.4,19.4c6.2-0.7,11.8-4,14.8-8.7c-6.6,0.7-10,1.1-16.6,1.9
					c-1.1,0.1-2.1-0.8-2.1-2.1c-0.1-6.3-0.1-9.4-0.1-15.7c0-1.3,0.9-2.4,2-2.6c17.8-2.6,26.7-3.8,44.5-5.9c0.5-0.1,1.1,0.1,1.5,0.5
					c0.4,0.4,0.6,1,0.6,1.6C149.4,143.3,131.1,167.4,104.7,169.4z"/>
				<path class="st3" d="M209,160.5c-0.9,0-1.7-0.6-2-1.6c-1.7-5.8-2.5-8.6-4.2-14.4c-10.4,0.7-15.6,1-25.9,1.7
					c-1.6,5.8-2.3,8.7-3.9,14.5c-0.3,1-1.1,1.7-1.9,1.8c-9.6,0.6-14.4,0.9-24,1.5c-0.7,0-1.3-0.3-1.7-0.9c-0.4-0.6-0.5-1.5-0.2-2.2
					c12.4-39,18.6-59.2,31-100.4c0.3-1,1.1-1.7,1.9-1.9c8.8-1.3,13.2-1.9,22-3.1c0.8-0.1,1.6,0.4,1.9,1.3
					c13.5,38.5,20.2,58.3,33.7,98.8c0.3,0.8,0.2,1.7-0.2,2.4c-0.4,0.7-1,1.2-1.7,1.2C223.9,159.8,218.9,160.1,209,160.5z
					 M195.7,118.4c-2.5-8.1-3.8-12.2-6.3-20.2c-2.3,8.6-3.5,12.8-5.8,21.3C188.5,119,190.9,118.8,195.7,118.4z"/>
				<path class="st3" d="M287.8,157.6c-0.8,0-1.6-0.6-1.9-1.5c-7.6-20.8-11.4-31.1-19.1-51.4c-2,20.6-3,30.8-5,51.3
					c-0.1,1.3-1,2.3-2,2.4c-9.1,0.3-13.7,0.5-22.8,0.9c-0.6,0-1.2-0.3-1.6-0.8c-0.4-0.6-0.6-1.3-0.5-2.1c4.6-41.3,6.9-62.1,11.5-104
					c0.1-1.3,1-2.3,2-2.4c9-0.9,13.5-1.3,22.6-2.1c0.8-0.1,1.6,0.5,1.9,1.4c7.1,20,10.7,30.1,17.8,50.5
					c6.9-21.1,10.3-31.7,17.2-53.1c0.3-1,1.1-1.7,1.9-1.7c9-0.6,13.6-0.8,22.6-1.2c1,0,1.9,0.9,2.1,2.2
					c5.1,42.7,7.6,64.1,12.7,107.1c0.1,0.8-0.1,1.6-0.5,2.2c-0.4,0.6-1,1-1.6,1c-9.1,0.1-13.6,0.2-22.7,0.4c-1,0-1.9-1-2.1-2.3
					c-2.3-20.9-3.4-31.3-5.7-52.1c-7.4,21.6-11.1,32.3-18.4,53.6c-0.3,1-1.1,1.6-1.9,1.6C291.8,157.5,290.4,157.5,287.8,157.6z"/>
				<path class="st3" d="M356.4,156c-1.1,0-2.1-1.2-2.1-2.7c-0.1-43.1-0.2-64.6-0.3-107.7c0-1.5,0.9-2.8,2.1-2.8
					c21.1-0.7,31.6-0.8,52.7-0.8c1.2,0,2.1,1.2,2.1,2.7c0,10.3,0,15.5,0,25.8c0,1.5-0.9,2.7-2.1,2.7c-11.2,0-16.8,0-28,0.2
					c0,4.2,0,6.3,0,10.4c10-0.1,14.9-0.2,24.9-0.2c1.2,0,2.1,1.2,2.1,2.7c0,9.8,0,14.7,0,24.4c0,1.5-0.9,2.7-2.1,2.7
					c-9.9,0-14.9,0-24.9,0.1c0,4.3,0,6.4,0,10.7c11.6-0.1,17.3-0.1,28.9-0.1c1.1,0,2.1,1.2,2.1,2.7c0,10.3,0,15.5,0,25.9
					c0,1.5-0.9,2.7-2.1,2.7C388.4,155.7,377.7,155.8,356.4,156z"/>
				<path class="st3" d="M488.8,159.3c-27.3-0.5-47.1-25.7-47-60.1c0.1-34.4,20.1-59.1,47.6-57.6c27.4,1.5,47.1,27.6,46.8,61.1
					C535.9,136.2,516,159.8,488.8,159.3C488.8,159.3,488.8,159.3,488.8,159.3z M489.2,74.4c-11.4-0.5-19.6,10.2-19.7,25.4
					s8.1,26.3,19.5,26.7c0,0,0,0,0,0c5.5,0.2,10.4-2.3,14-6.8c3.6-4.6,5.5-11.1,5.6-18.4C508.6,86.3,500.5,74.9,489.2,74.4z"/>
				<path class="st3" d="M565.4,158.9c-0.9,0-1.6-0.7-1.9-1.7c-12.4-41.9-18.7-63.3-31.2-106.4c-0.2-0.8-0.2-1.8,0.2-2.5
					c0.4-0.7,1-1.1,1.7-1c10.3,0.9,15.5,1.3,25.8,2.3c0.9,0.1,1.7,0.9,2,2c5.7,23.3,8.6,34.8,14.3,57.8c5.9-22.1,8.9-33,14.8-54.6
					c0.3-1,1.1-1.7,2-1.6c10.2,1.2,15.3,1.9,25.6,3.3c0.7,0.1,1.3,0.6,1.7,1.3c0.4,0.7,0.5,1.6,0.2,2.4
					c-12.9,38.1-19.3,57.8-32.2,97.9c-0.3,1-1.1,1.6-1.9,1.6C578,159.4,573.8,159.3,565.4,158.9z"/>
				<path class="st3" d="M625.8,161.8c-1.1-0.1-2.1-1.2-2-2.6c0.4-39.7,0.6-59.5,0.9-99.2c0-1.4,1-2.4,2.1-2.2
					c20.9,3,31.3,4.7,52.1,8.4c1.1,0.2,2,1.4,2,2.7c-0.1,8.9-0.1,13.4-0.2,22.4c0,1.3-0.9,2.2-2.1,2.1c-11.1-1.6-16.6-2.4-27.7-3.9
					c0,3.7-0.1,5.6-0.1,9.3c9.9,1.2,14.8,1.9,24.6,3.2c1.1,0.2,2.1,1.4,2,2.7c-0.1,8.5-0.1,12.8-0.2,21.3c0,1.3-0.9,2.3-2.1,2.2
					c-9.9-1.1-14.8-1.6-24.7-2.5c0,3.8-0.1,5.8-0.1,9.6c11.5,1,17.2,1.6,28.7,2.7c1.1,0.1,2.1,1.3,2,2.6c-0.1,9-0.1,13.4-0.2,22.4
					c0,1.3-0.9,2.3-2.1,2.2C657.7,163.6,647.1,163,625.8,161.8z"/>
				<path class="st3" d="M735.4,169.4c-0.8-0.1-1.5-0.6-1.8-1.3c-5-10.7-7.4-16.1-12.4-27.2c-1.9-0.2-2.9-0.3-4.8-0.6
					c-0.1,10.1-0.1,15.1-0.2,25.2c0,1.3-0.9,2.2-2.1,2.1c-9-0.7-13.4-1-22.4-1.7c-1.1-0.1-2.1-1.2-2-2.5c0.3-37.1,0.5-55.7,0.9-92.9
					c0-1.3,0.9-2.2,2.1-2c14,2.6,21.1,4,35,7c18.6,3.9,31.9,20.6,31.8,39.1c-0.1,10.1-4.5,18.2-12.3,22.9c6,12.6,9,18.8,15,30.9
					c0.3,0.7,0.3,1.5,0,2.1c-0.4,0.6-1,0.9-1.8,0.9C750.4,170.7,745.4,170.2,735.4,169.4z M724.8,116.2c4.8,0.7,7.8-1.6,7.8-6.1
					c0-4.5-2.9-7.8-7.7-8.6c-3.2-0.6-4.9-0.8-8.1-1.4c0,6-0.1,9-0.1,15C719.9,115.4,721.5,115.7,724.8,116.2z"/>
			</g>
			<g>
				<linearGradient id="SVGID_1_" gradientUnits="userSpaceOnUse" x1="104.0398" y1="70.6689" x2="104.0398" y2="167.2207">
					<stop  offset="0.1548" style="stop-color:#9408FF"/>
					<stop  offset="0.5994" style="stop-color:#3E31DC"/>
					<stop  offset="0.8728" style="stop-color:#0D48C8"/>
				</linearGradient>
				<path class="st4" d="M104.6,165.9c-24.5,1.9-42.3-15-42.5-40.4C62,99.9,79.4,77.4,103.6,72.6c20.3-4,37.1,7.6,41.2,28
					c-8.6,1.1-12.9,1.7-21.5,3c-3.3-7.4-10.8-11.2-19.2-9.8c-12.8,2.2-21.2,13.7-21.1,28.6c0.1,14.8,8.8,23.7,21.6,22.4
					c9-0.9,16.6-6.6,19.3-14.6c0.1-0.4,0.1-0.8-0.1-1.1c-0.2-0.3-0.5-0.5-0.9-0.4c-7.7,0.9-11.5,1.3-19.1,2.3
					c0-5.4-0.1-8.1-0.1-13.5c17-2.4,25.4-3.5,42.5-5.5C145.8,142,128.9,164,104.6,165.9z"/>
				<linearGradient id="SVGID_2_" gradientUnits="userSpaceOnUse" x1="190.3963" y1="55.5361" x2="190.3963" y2="164.2739">
					<stop  offset="0.1548" style="stop-color:#9408FF"/>
					<stop  offset="0.5994" style="stop-color:#3E31DC"/>
					<stop  offset="0.8728" style="stop-color:#0D48C8"/>
				</linearGradient>
				<path class="st5" d="M209.7,156.7c-1.8-6.1-2.6-9.2-4.4-15.3c-0.1-0.5-0.5-0.8-1-0.8c-11.6,0.8-17.4,1.2-28.9,2
					c-0.4,0-0.8,0.4-1,0.9c-1.7,6.2-2.5,9.2-4.1,15.4c-8.7,0.5-13.1,0.8-21.8,1.4c12.1-38.2,18.1-57.8,30.3-98.1
					c8.2-1.2,12.3-1.7,20.6-2.8c13.1,37.4,19.7,56.7,32.8,96.1C223.2,156,218.7,156.2,209.7,156.7z M189.4,89.4
					c-0.4,0.1-0.8,0.4-1,1c-3.5,12.7-5.2,19-8.6,31.6c-0.1,0.4-0.1,0.8,0.1,1.1c0.2,0.3,0.5,0.5,0.8,0.5c7.2-0.6,10.8-1,18-1.5
					c0.3,0,0.7-0.3,0.8-0.6c0.2-0.4,0.2-0.8,0.1-1.2c-3.7-12.1-5.6-18.1-9.3-30.1C190.2,89.6,189.8,89.3,189.4,89.4
					C189.4,89.4,189.4,89.4,189.4,89.4z"/>
				<linearGradient id="SVGID_3_" gradientUnits="userSpaceOnUse" x1="291.0972" y1="43.6646" x2="291.0972" y2="159.298">
					<stop  offset="0.1548" style="stop-color:#9408FF"/>
					<stop  offset="0.5994" style="stop-color:#3E31DC"/>
					<stop  offset="0.8728" style="stop-color:#0D48C8"/>
				</linearGradient>
				<path class="st6" d="M288.4,153.6c-8.7-23.8-13.1-35.6-21.8-58.9c-0.2-0.5-0.5-0.7-0.9-0.7c-0.1,0-0.1,0-0.2,0
					c-0.5,0.1-0.8,0.6-0.9,1.2c-2.3,23.8-3.4,35.6-5.7,59.2c-8.3,0.3-12.4,0.5-20.7,0.9c4.5-40.3,6.7-60.7,11.2-101.5
					c8.4-0.8,12.6-1.2,21-1.9c7.8,21.8,11.7,32.9,19.4,55.2c0.2,0.5,0.5,0.8,1,0.8c0,0,0,0,0,0c0.4,0,0.8-0.4,0.9-0.9
					c7.5-23.1,11.3-34.7,18.9-58c8.4-0.5,12.6-0.7,21-1.1c5,41.6,7.5,62.4,12.4,104.3c-8.3,0.1-12.4,0.2-20.6,0.4
					c-2.6-24.1-3.9-36.1-6.6-60.2c-0.1-0.6-0.4-1.1-0.9-1.1c-0.1,0-0.1,0-0.2,0c-0.4,0-0.8,0.3-0.9,0.8c-8.5,24.7-12.7,37-21.1,61.4
					C291.6,153.5,290.5,153.5,288.4,153.6z"/>
				<linearGradient id="SVGID_4_" gradientUnits="userSpaceOnUse" x1="382.8907" y1="42.0232" x2="382.8907" y2="156.0266">
					<stop  offset="0.1548" style="stop-color:#9408FF"/>
					<stop  offset="0.5994" style="stop-color:#3E31DC"/>
					<stop  offset="0.8728" style="stop-color:#0D48C8"/>
				</linearGradient>
				<path class="st7" d="M357.4,151.9c-0.1-42-0.2-63-0.3-105c20.2-0.6,30.4-0.8,50.6-0.7c0,9.2,0,13.8,0,23c-11.6,0-17.4,0-29,0.2
					c-0.6,0-1,0.6-1,1.4c0,6.4,0,9.5,0,15.9c0,0.8,0.5,1.4,1,1.4c10.4-0.1,15.6-0.2,25.9-0.2c0,8.7,0,13,0,21.7
					c-10.4,0-15.5,0-25.9,0.1c-0.6,0-1,0.6-1,1.4c0,6.5,0,9.7,0,16.2c0,0.8,0.5,1.4,1,1.4c12-0.1,18-0.1,29.9-0.1
					c0,9.2,0,13.9,0,23.1C388.2,151.6,377.9,151.6,357.4,151.9z"/>
				<linearGradient id="SVGID_5_" gradientUnits="userSpaceOnUse" x1="488.9806" y1="44.2306" x2="488.9806" y2="156.5896">
					<stop  offset="0.1548" style="stop-color:#9408FF"/>
					<stop  offset="0.5994" style="stop-color:#3E31DC"/>
					<stop  offset="0.8728" style="stop-color:#0D48C8"/>
				</linearGradient>
				<path class="st8" d="M488.8,155.2c-25.5-0.5-44-24-43.9-56s18.8-54.9,44.4-53.6c12.5,0.7,23.7,6.9,31.6,17.3
					c7.9,10.3,12.2,24.4,12.1,39.6c-0.1,15.2-4.6,28.7-12.6,38.3C512.5,150.3,501.2,155.5,488.8,155.2
					C488.8,155.2,488.8,155.2,488.8,155.2z M489.2,70.3c-13.2-0.6-22.8,11.8-22.8,29.4c-0.1,17.5,9.4,30.5,22.6,30.8c0,0,0,0,0,0
					c6.3,0.2,12.1-2.7,16.2-8c4.1-5.3,6.4-12.8,6.5-21.2C511.7,84.1,502.3,70.9,489.2,70.3z"/>
				<linearGradient id="SVGID_6_" gradientUnits="userSpaceOnUse" x1="576.3927" y1="47.3946" x2="576.3927" y2="159.9737">
					<stop  offset="0.1548" style="stop-color:#9408FF"/>
					<stop  offset="0.5994" style="stop-color:#3E31DC"/>
					<stop  offset="0.8728" style="stop-color:#0D48C8"/>
				</linearGradient>
				<path class="st9" d="M566.2,155C554,114.2,548,93.4,535.7,51.5c9.4,0.8,14.1,1.2,23.5,2.1c6.4,26.1,9.6,39,16,64.7
					c0.1,0.5,0.5,0.9,1,1c0,0,0,0,0,0c0.4,0,0.8-0.3,1-0.8c6.6-24.7,10-36.9,16.6-61.1c9.3,1.1,14,1.7,23.3,2.9
					c-12.6,37.3-18.8,56.5-31.4,95.7C577.9,155.5,574,155.4,566.2,155z"/>
				<linearGradient id="SVGID_7_" gradientUnits="userSpaceOnUse" x1="652.4837" y1="57.8086" x2="652.4837" y2="165.3389">
					<stop  offset="0.1548" style="stop-color:#9408FF"/>
					<stop  offset="0.5994" style="stop-color:#3E31DC"/>
					<stop  offset="0.8728" style="stop-color:#0D48C8"/>
				</linearGradient>
				<path class="st10" d="M626.9,158.1c0.4-38.6,0.6-57.8,0.9-96.4c20,2.8,30.1,4.4,50,7.9c-0.1,8-0.1,12-0.2,20
					c-11.5-1.7-17.2-2.6-28.7-4.1c-0.6-0.1-1,0.4-1,1.1c-0.1,5.7-0.1,8.6-0.1,14.3c0,0.7,0.5,1.3,1,1.4c10.3,1.2,15.4,1.9,25.7,3.2
					c-0.1,7.6-0.1,11.4-0.2,19c-10.3-1.1-15.4-1.7-25.7-2.7c-0.6-0.1-1,0.4-1,1.1c-0.1,5.8-0.1,8.7-0.1,14.5c0,0.7,0.5,1.3,1,1.3
					c11.9,1,17.8,1.5,29.7,2.7c-0.1,8-0.1,12.1-0.2,20.1C657.5,160,647.3,159.3,626.9,158.1z"/>
				<linearGradient id="SVGID_8_" gradientUnits="userSpaceOnUse" x1="725.7306" y1="68.6481" x2="725.7306" y2="171.9331">
					<stop  offset="0.1548" style="stop-color:#9408FF"/>
					<stop  offset="0.5994" style="stop-color:#3E31DC"/>
					<stop  offset="0.8728" style="stop-color:#0D48C8"/>
				</linearGradient>
				<path class="st11" d="M736.1,166.1c-5.1-10.9-7.6-16.5-12.7-27.8c-0.2-0.4-0.5-0.7-0.9-0.7c-3.2-0.4-4.9-0.6-8.1-1
					c-0.6-0.1-1,0.4-1,1c-0.1,10.6-0.1,15.9-0.2,26.5c-8.1-0.7-12.2-1-20.3-1.6c0.3-36.1,0.5-54.1,0.8-90.2
					c13.6,2.5,20.4,3.8,34,6.6c17.1,3.5,28.9,18.2,28.8,35.2c-0.1,9.7-4.6,17.4-12.5,21.3c-0.5,0.2-0.6,0.9-0.4,1.4
					c6,12.8,9,19,15.1,31.2C749.6,167.3,745.1,166.9,736.1,166.1z M714.7,96.2c-0.6-0.1-1,0.3-1,1c-0.1,7.8-0.1,11.8-0.2,19.6
					c0,0.6,0.5,1.2,1,1.3c4.1,0.6,6.1,0.9,10.2,1.5c6.5,1,10.9-2.6,10.9-9c0-6.3-4.3-11.4-10.7-12.5
					C720.9,97.3,718.8,96.9,714.7,96.2z"/>
			</g>
			<g>
				<linearGradient id="SVGID_9_" gradientUnits="userSpaceOnUse" x1="103.9729" y1="75.3731" x2="103.9729" y2="162.5919">
					<stop  offset="0.1548" style="stop-color:#9408FF"/>
					<stop  offset="0.3671" style="stop-color:#6A55EE"/>
					<stop  offset="0.7178" style="stop-color:#28CED3"/>
					<stop  offset="0.8728" style="stop-color:#0DFFC8"/>
				</linearGradient>
				<path class="st12" d="M104.6,162.4c-22.7,1.9-39.2-13.8-39.4-37.5c-0.2-23.8,16-44.6,38.4-48.9c17.4-3.3,31.9,5.4,37,21.4
					c-6.3,0.9-9.4,1.3-15.6,2.2c-4.2-7.3-12.2-11-21.1-9.4c-14.4,2.5-24.3,16-24.2,32.5c0.1,16.5,10.3,26.8,24.7,25.4
					c10.3-1,19-7.6,22.1-17.1c0.9-2.7,1.4-4.1,2.3-6.8c-8.9,1-13.3,1.6-22.2,2.7c0-2.6,0-4-0.1-6.6c14.4-1.9,21.7-2.8,36.1-4.5
					C141.3,142,126.1,160.7,104.6,162.4z"/>
				<linearGradient id="SVGID_10_" gradientUnits="userSpaceOnUse" x1="190.3367" y1="60.9354" x2="190.3367" y2="158.9912">
					<stop  offset="0.1548" style="stop-color:#9408FF"/>
					<stop  offset="0.3671" style="stop-color:#6A55EE"/>
					<stop  offset="0.7178" style="stop-color:#28CED3"/>
					<stop  offset="0.8728" style="stop-color:#0DFFC8"/>
				</linearGradient>
				<path class="st13" d="M211.9,152.7c-1.9-6.5-2.8-9.7-4.6-16.1c-13.9,0.9-20.9,1.5-34.8,2.6c-1.7,6.5-2.6,9.7-4.4,16.2
					c-6,0.4-9,0.6-15,1c11.2-35.4,16.7-53.6,27.9-90.6c6.5-0.9,9.8-1.3,16.4-2.2c12.1,34.5,18.2,52.2,30.3,88.3
					C221.3,152.2,218.2,152.4,211.9,152.7z M174.9,127.7c11.9-1.1,17.8-1.5,29.7-2.5c-6.2-20.1-9.2-30.1-15.4-49.7
					C183.5,96.7,180.6,107.1,174.9,127.7z"/>
				<linearGradient id="SVGID_11_" gradientUnits="userSpaceOnUse" x1="291.0725" y1="49.259" x2="291.0725" y2="153.8226">
					<stop  offset="0.1548" style="stop-color:#9408FF"/>
					<stop  offset="0.3671" style="stop-color:#6A55EE"/>
					<stop  offset="0.7178" style="stop-color:#28CED3"/>
					<stop  offset="0.8728" style="stop-color:#0DFFC8"/>
				</linearGradient>
				<path class="st14" d="M290.4,149.5c-10.8-29.6-16.2-44.2-27.1-72.9c-2.9,29.7-4.3,44.5-7.2,74c-5.7,0.2-8.6,0.4-14.4,0.6
					c4.1-37.3,6.2-56,10.4-93.8c6.5-0.6,9.7-0.9,16.3-1.4c9,25.3,13.5,38.1,22.5,63.9c8.7-26.6,13.1-40.1,21.8-67
					c6.5-0.4,9.8-0.5,16.3-0.8c4.6,38.3,6.9,57.5,11.4,96c-5.7,0.1-8.6,0.2-14.3,0.3c-3.3-30.1-4.9-45.1-8.2-75.1
					c-10.5,30.7-15.8,46-26.2,76.2C291.2,149.5,290.9,149.5,290.4,149.5z"/>
				<linearGradient id="SVGID_12_" gradientUnits="userSpaceOnUse" x1="382.9027" y1="47.5175" x2="382.9027" y2="150.5106">
					<stop  offset="0.1548" style="stop-color:#9408FF"/>
					<stop  offset="0.3671" style="stop-color:#6A55EE"/>
					<stop  offset="0.7178" style="stop-color:#28CED3"/>
					<stop  offset="0.8728" style="stop-color:#0DFFC8"/>
				</linearGradient>
				<path class="st15" d="M360.5,147.8c-0.1-38.8-0.1-58.1-0.2-96.9c17.7-0.5,26.6-0.6,44.3-0.6c0,5.9,0,8.9,0,14.8
					c-12,0-18,0.1-30.1,0.3c0,10.7,0,16.1,0,26.9c10.8-0.2,16.2-0.2,27-0.2c0,5.4,0,8.1,0,13.5c-10.8,0-16.2,0.1-27,0.2
					c0,10.9,0,16.3,0,27.1c12.4-0.1,18.6-0.2,31-0.2c0,6,0,8.9,0,14.9C387.5,147.5,378.5,147.5,360.5,147.8z"/>
				<linearGradient id="SVGID_13_" gradientUnits="userSpaceOnUse" x1="488.9837" y1="49.6595" x2="488.9837" y2="151.1683">
					<stop  offset="0.1548" style="stop-color:#9408FF"/>
					<stop  offset="0.3671" style="stop-color:#6A55EE"/>
					<stop  offset="0.7178" style="stop-color:#28CED3"/>
					<stop  offset="0.8728" style="stop-color:#0DFFC8"/>
				</linearGradient>
				<path class="st16" d="M488.8,151.2c-24.1-0.5-40.9-21.7-40.8-51.9s17.1-50.8,41.3-49.6c24.1,1.3,40.8,23.2,40.6,52.6
					C529.7,131.8,512.9,151.7,488.8,151.2C488.8,151.2,488.8,151.2,488.8,151.2z M489.2,66.3c-14.7-0.7-25.9,13.7-26,33.3
					c-0.1,19.6,11,34.6,25.7,35c0,0,0,0,0,0c7.2,0.2,13.7-3,18.4-9.1c4.7-6,7.3-14.5,7.4-23.9C514.9,81.9,504.1,67,489.2,66.3z"/>
				<linearGradient id="SVGID_14_" gradientUnits="userSpaceOnUse" x1="576.39" y1="53.1265" x2="576.39" y2="154.6198">
					<stop  offset="0.1548" style="stop-color:#9408FF"/>
					<stop  offset="0.3671" style="stop-color:#6A55EE"/>
					<stop  offset="0.7178" style="stop-color:#28CED3"/>
					<stop  offset="0.8728" style="stop-color:#0DFFC8"/>
				</linearGradient>
				<path class="st17" d="M568.3,151.2c-11.2-37.6-16.8-56.7-28-95.4c6.7,0.6,10,0.8,16.7,1.5c7.7,31.3,11.5,46.8,19.1,77.5
					C584,105,588,90.3,596,61.4c6.6,0.8,9.9,1.2,16.5,2c-11.6,34.6-17.4,52.3-28.9,88.5C577.5,151.6,574.4,151.5,568.3,151.2z"/>
				<linearGradient id="SVGID_15_" gradientUnits="userSpaceOnUse" x1="652.4885" y1="63.3053" x2="652.4885" y2="160.2187">
					<stop  offset="0.1548" style="stop-color:#9408FF"/>
					<stop  offset="0.3671" style="stop-color:#6A55EE"/>
					<stop  offset="0.7178" style="stop-color:#28CED3"/>
					<stop  offset="0.8728" style="stop-color:#0DFFC8"/>
				</linearGradient>
				<path class="st18" d="M630,154.5c0.3-35.5,0.5-53.2,0.9-88.6c17.6,2.4,26.3,3.8,43.8,6.7c0,5.2-0.1,7.8-0.1,12.9
					c-11.9-1.8-17.8-2.7-29.7-4.3c-0.1,9.7-0.1,14.5-0.2,24.2c10.7,1.2,16,1.9,26.7,3.2c0,4.7-0.1,7.1-0.1,11.8
					c-10.7-1.2-16-1.8-26.7-2.9c-0.1,9.8-0.1,14.7-0.2,24.5c12.3,1,18.5,1.5,30.7,2.6c0,5.2-0.1,7.8-0.1,13
					C656.9,156.3,648,155.7,630,154.5z"/>
				<linearGradient id="SVGID_16_" gradientUnits="userSpaceOnUse" x1="724.7051" y1="73.9812" x2="724.7051" y2="166.9493">
					<stop  offset="0.1548" style="stop-color:#9408FF"/>
					<stop  offset="0.3671" style="stop-color:#6A55EE"/>
					<stop  offset="0.7178" style="stop-color:#28CED3"/>
					<stop  offset="0.8728" style="stop-color:#0DFFC8"/>
				</linearGradient>
				<path class="st19" d="M737.9,163c-5.2-11.2-7.8-16.8-12.9-28.4c-5.9-0.7-8.8-1.1-14.7-1.8c-0.1,11.1-0.1,16.6-0.2,27.7
					c-5.7-0.5-8.5-0.7-14.1-1.2c0.3-33.1,0.5-49.7,0.8-82.8c12.4,2.3,18.6,3.4,30.9,5.9c15.3,3.1,25.8,16.1,25.7,31.3
					c-0.1,8.7-3.9,15.3-11,18.8c-1.4,0.7-2,1-3.4,1.7c5.8,12.3,8.7,18.4,14.5,30.3C747.3,163.9,744.2,163.6,737.9,163z M710.4,120.9
					c5.7,0.8,8.6,1.2,14.3,2c8.2,1.2,14-3.7,14-11.9c0.1-8.2-5.6-15-13.8-16.4c-5.7-1-8.6-1.6-14.3-2.5
					C710.6,103.6,710.5,109.4,710.4,120.9z"/>
			</g>
			<g>
				
					<image style="overflow:visible;opacity:0.5;" width="780" height="230" xlink:href="B2E792DD460DD66A.png"  transform="matrix(1 0 0 1 21.3458 -12.018)">
				</image>
				<g>
					
						<image style="overflow:visible;opacity:0.8;" width="721" height="159" xlink:href="B2E792DD460DD66D.png"  transform="matrix(1 0 0 1 50.4562 27.299)">
					</image>
					<g>
						
							<image style="overflow:visible;opacity:0.7;" width="705" height="140" xlink:href="B2E792DD460DD66E.png"  transform="matrix(1 0 0 1 58.4231 37.9758)">
						</image>
						<g>
							<path class="st20" d="M104.6,162.4c-22.7,1.9-39.2-13.8-39.4-37.5c-0.2-23.8,16-44.6,38.4-48.9c17.4-3.3,31.9,5.4,37,21.4
								c-6.3,0.9-9.4,1.3-15.6,2.2c-4.2-7.3-12.2-11-21.1-9.4c-14.4,2.5-24.3,16-24.2,32.5c0.1,16.5,10.3,26.8,24.7,25.4
								c10.3-1,19-7.6,22.1-17.1c0.9-2.7,1.4-4.1,2.3-6.8c-8.9,1-13.3,1.6-22.2,2.7c0-2.6,0-4-0.1-6.6c14.4-1.9,21.7-2.8,36.1-4.5
								C141.3,142,126.1,160.7,104.6,162.4z"/>
							<path class="st20" d="M211.9,152.7c-1.9-6.5-2.8-9.7-4.6-16.1c-13.9,0.9-20.9,1.5-34.8,2.6c-1.7,6.5-2.6,9.7-4.4,16.2
								c-6,0.4-9,0.6-15,1c11.2-35.4,16.7-53.6,27.9-90.6c6.5-0.9,9.8-1.3,16.4-2.2c12.1,34.5,18.2,52.2,30.3,88.3
								C221.3,152.2,218.2,152.4,211.9,152.7z M174.9,127.7c11.9-1.1,17.8-1.5,29.7-2.5c-6.2-20.1-9.2-30.1-15.4-49.7
								C183.5,96.7,180.6,107.1,174.9,127.7z"/>
							<path class="st20" d="M290.4,149.5c-10.8-29.6-16.2-44.2-27.1-72.9c-2.9,29.7-4.3,44.5-7.2,74c-5.7,0.2-8.6,0.4-14.4,0.6
								c4.1-37.3,6.2-56,10.4-93.8c6.5-0.6,9.7-0.9,16.3-1.4c9,25.3,13.5,38.1,22.5,63.9c8.7-26.6,13.1-40.1,21.8-67
								c6.5-0.4,9.8-0.5,16.3-0.8c4.6,38.3,6.9,57.5,11.4,96c-5.7,0.1-8.6,0.2-14.3,0.3c-3.3-30.1-4.9-45.1-8.2-75.1
								c-10.5,30.7-15.8,46-26.2,76.2C291.2,149.5,290.9,149.5,290.4,149.5z"/>
							<path class="st20" d="M360.5,147.8c-0.1-38.8-0.1-58.1-0.2-96.9c17.7-0.5,26.6-0.6,44.3-0.6c0,5.9,0,8.9,0,14.8
								c-12,0-18,0.1-30.1,0.3c0,10.7,0,16.1,0,26.9c10.8-0.2,16.2-0.2,27-0.2c0,5.4,0,8.1,0,13.5c-10.8,0-16.2,0.1-27,0.2
								c0,10.9,0,16.3,0,27.1c12.4-0.1,18.6-0.2,31-0.2c0,6,0,8.9,0,14.9C387.5,147.5,378.5,147.5,360.5,147.8z"/>
							<path class="st20" d="M488.8,151.2c-24.1-0.5-40.9-21.7-40.8-51.9s17.1-50.8,41.3-49.6c24.1,1.3,40.8,23.2,40.6,52.6
								C529.7,131.8,512.9,151.7,488.8,151.2C488.8,151.2,488.8,151.2,488.8,151.2z M489.2,66.3c-14.7-0.7-25.9,13.7-26,33.3
								c-0.1,19.6,11,34.6,25.7,35c0,0,0,0,0,0c7.2,0.2,13.7-3,18.4-9.1c4.7-6,7.3-14.5,7.4-23.9C514.9,81.9,504.1,67,489.2,66.3z"
								/>
							<path class="st20" d="M568.3,151.2c-11.2-37.6-16.8-56.7-28-95.4c6.7,0.6,10,0.8,16.7,1.5c7.7,31.3,11.5,46.8,19.1,77.5
								C584,105,588,90.3,596,61.4c6.6,0.8,9.9,1.2,16.5,2c-11.6,34.6-17.4,52.3-28.9,88.5C577.5,151.6,574.4,151.5,568.3,151.2z"/>
							<path class="st20" d="M630,154.5c0.3-35.5,0.5-53.2,0.9-88.6c17.6,2.4,26.3,3.8,43.8,6.7c0,5.2-0.1,7.8-0.1,12.9
								c-11.9-1.8-17.8-2.7-29.7-4.3c-0.1,9.7-0.1,14.5-0.2,24.2c10.7,1.2,16,1.9,26.7,3.2c0,4.7-0.1,7.1-0.1,11.8
								c-10.7-1.2-16-1.8-26.7-2.9c-0.1,9.8-0.1,14.7-0.2,24.5c12.3,1,18.5,1.5,30.7,2.6c0,5.2-0.1,7.8-0.1,13
								C656.9,156.3,648,155.7,630,154.5z"/>
							<path class="st20" d="M737.9,163c-5.2-11.2-7.8-16.8-12.9-28.4c-5.9-0.7-8.8-1.1-14.7-1.8c-0.1,11.1-0.1,16.6-0.2,27.7
								c-5.7-0.5-8.5-0.7-14.1-1.2c0.3-33.1,0.5-49.7,0.8-82.8c12.4,2.3,18.6,3.4,30.9,5.9c15.3,3.1,25.8,16.1,25.7,31.3
								c-0.1,8.7-3.9,15.3-11,18.8c-1.4,0.7-2,1-3.4,1.7c5.8,12.3,8.7,18.4,14.5,30.3C747.3,163.9,744.2,163.6,737.9,163z
								 M710.4,120.9c5.7,0.8,8.6,1.2,14.3,2c8.2,1.2,14-3.7,14-11.9c0.1-8.2-5.6-15-13.8-16.4c-5.7-1-8.6-1.6-14.3-2.5
								C710.6,103.6,710.5,109.4,710.4,120.9z"/>
						</g>
					</g>
				</g>
			</g>
		</g>
	</g>
</g>
</svg>
