<?xml version="1.0" encoding="utf-8"?>

<!-- Generator: Adobe Illustrator 24.0.3, SVG Export Plug-In . SVG Version: 6.00 Build 0)  -->
<svg version="1.1" id="Layer_1" xmlns="http://www.w3.org/2000/svg" xmlns:xlink="http://www.w3.org/1999/xlink" x="0px" y="0px"
	 viewBox="0 0 61 48" style="enable-background:new 0 0 61 48;" xml:space="preserve">
<style type="text/css">
	.st0{fill:#99CC33;}
	.st1{fill:#CCFF00;}
	.st2{fill:#FFFFFF;}
	.st3{fill:#669900;}
	.st4{fill:#D0D2D3;}
	.st5{stroke:#F9F4F4;stroke-width:0.25;stroke-miterlimit:10;}
	.st6{display:none;fill:#99CC33;}
	.st7{display:none;}
	.st8{display:inline;}
</style>
<polygon class="st0" points="28.8,45.6 14.7,36.4 14.7,13.5 45.6,13.5 "/>
<path d="M43.6,0.4c3.4,0.4,5.9,3.9,5.1,7.2c0.6,0.4,1.3,0.7,2,1.2c0.4-1.6,0.4-3.3-0.5-4.7c0.5-0.2,1.1,0.2,1.5,0.3
	c3,1.2,4.6,5,3.2,7.9c0.4,0.4,0.7,0.8,1.1,1.2c1-1.4,1.2-3.3,0.9-5c3.9,1.3,5.1,6.9,2.1,9.8c2.3,5.1,2.2,11.2-0.3,16.2
	c-2.3,4.7-6.5,8.4-11.2,10.5c-6.4,3-14,3.4-20.8,1.2c-0.4-0.1-0.7-0.3-1.1-0.3c-1.3,1.1-3,1.9-4.7,1.8c-0.6-0.1-1.3-0.5-1.3-1.2
	c-0.1-1.1,0.8-2,1.5-2.8c-0.8-0.5-1.5-1-2.2-1.5c-1.1,1-2.6,1.8-4.1,2.1c-0.8,0.1-1.8,0-2.4-0.6c-0.5-0.8-0.2-1.9,0.4-2.6
	c0.6-1,1.6-1.6,2.5-2.2c-2.6-3-4.5-6.8-4.8-10.8c-2,0.8-3.9,1.8-5.9,2.6c0.1-2.2,0.4-4.4,0.6-6.6c-1.4,0.7-2.8,1.4-4.2,2.1
	c-0.5-0.9-0.9-1.8-1.4-2.8c3.1-1.6,6.2-3.2,9.2-4.8c-0.2,2.4-0.4,4.7-0.7,7.1c0.8-0.2,1.5-0.7,2.2-0.9c0.2-2.7,1-5.4,2.3-7.8
	C17.3,8.9,26.7,4.4,35.7,4.5c2.8-0.1,5.6,0.4,8.3,1.2C44.7,4,44.5,2,43.6,0.4 M32.8,6.6c-6.6,0.7-13.1,3.9-16.9,9.4
	c-3.7,5-4.3,12-1.5,17.6c1.7,3.6,4.7,6.5,8.1,8.5c9,5.3,21.4,4.6,29.4-2.2c-1.1,0.6-2.2,1.2-3.3,1.8c-0.7-0.5-1.4-1.1-2.2-1.5
	c-1,0.5-1.9,1.1-2.9,1.6c-0.5-0.5-1-1-1.5-1.5H42l0,0c-0.5-0.4-0.9-1-1.5-1.4c-1,0.7-1.9,1.5-3,2.1c-1.6-1.2-3.2-2.5-4.8-3.8
	c1.2-1.3,2.4-2.6,3.6-3.8c0.5,0.3,1,0.9,1.4,1.3c-0.6,0.8-1.5,1.5-2.1,2.3c0.6,0.5,1.2,1,1.9,1.5c1.1-0.7,2.1-1.6,3.2-2.2
	c1.1,1,2,2.1,3.1,3c0.9-0.5,1.8-1,2.8-1.5c0.7,0.5,1.3,1,2,1.5c0.1,0.2,0.4,0,0.5-0.1c2.2-1.2,4.4-2.3,6.6-3.5
	c0.5-0.6,0.9-1.3,1.2-1.9c2.9-5.5,2.3-12.5-1.4-17.5C50.6,9,41.3,5.7,32.8,6.6z"/>
<path class="st1" d="M32.8,6.6c8.5-0.9,17.8,2.3,22.8,9.5c-1.9-1.8-4.2-3.3-6.6-4.4c-1.4-1.3-3.2-2.1-5-2.6c-1.2-0.2-2.5-0.6-3.6,0
	c-8.7-1.3-18,1-24.6,6.9C19.7,10.6,26.2,7.3,32.8,6.6z"/>
<path class="st0" d="M15.9,16c6.6-5.9,15.9-8.2,24.6-6.9c-0.3,0.3-0.3,0.7-0.1,1c0.7,1.1,1.9,1.7,3,2.2c1.7,0.7,3.6,1.3,5.4,1
	c0.9-0.2,0.8-1.2,0.3-1.7c2.4,1.1,4.6,2.6,6.6,4.4c3.6,5,4.3,12.1,1.4,17.5c-2.4,2.4-5.2,4.2-8.3,5.5c-0.7-0.5-1.3-1-2-1.5
	c-0.9,0.5-1.8,1-2.8,1.5c-1.1-1-2-2.1-3.1-3c-1.1,0.6-2.1,1.5-3.2,2.2c-0.6-0.5-1.3-1-1.9-1.5c0.6-0.8,1.4-1.5,2.1-2.3
	c-0.4-0.5-0.9-1-1.4-1.3c-1.2,1.2-2.4,2.5-3.6,3.8c1.6,1.2,3.2,2.6,4.8,3.8c1-0.6,2-1.4,3-2.1c0.6,0.4,1,1,1.5,1.4l0,0
	c-0.4,0-0.9-0.1-1.3,0c-0.8,0.2-0.7,1.4-1.6,1.3c-1.8,0-3.5-0.8-5.3-0.9c-0.9-0.1-1.5,1-2.5,0.8c-1.4-0.3-2.3-1.6-3.6-2
	c-1.1-0.3-2.1,0.2-3.2,0.4c-0.7-0.5-1.4-1-2.2-1.4c0.4-0.9,0.8-1.7,1.5-2.4c2.2-2.7,5.6-3.9,7.6-6.8c0.7-1.1,0.9-2.5,0.6-3.8
	c-0.2,1.5-1.1,2.9-2.2,3.9c-2,1.8-4.6,2.9-6.5,4.8c-1.2,1.1-2,2.6-2.3,4.3c-0.7-0.7-1-1.7-0.6-2.6c1-2.3,3.2-3.9,5.3-5.2
	c-2.6,0.6-5.2,2-6.5,4.5c-0.4-1,0.3-2,0.9-2.7c1.6-1.6,3.7-2.6,5.8-3.4c-2.5,0.2-5.1,1-6.9,2.9c-0.3-0.8,0.2-1.7,0.9-2.1
	c2.6-1.5,5.8-1.5,8-3.7c-1.8,1.3-4.1,1.4-6.1,1.8c-1.3,0.2-2.7,0.5-3.7,1.5c-0.8,0.9-0.6,2.3-0.3,3.3c-0.1,0.5-0.3,1-0.3,1.5
	c-1.5-1.6-2.8-3.5-3.9-5.4c0.6,2.7,1.9,5.3,3.6,7.5c-1.1-0.7-2.1-1.7-3.1-2.6C11.5,28.1,12.2,21,15.9,16 M46.5,17.1
	c-2.5,0.7-4.4,2.8-5.4,5.2c-1.2,2.9-1.2,6.3,0,9.3c1,2.4,3,4.5,5.6,5.2c2.2,0.6,4.7,0,6.4-1.6c3.4-2.4,4.4-7.1,3.6-11
	c-0.6-2.8-2.3-5.6-5.2-6.5C49.9,16.8,48.1,16.7,46.5,17.1 M36.8,22.4c-1.9,0.6-2.1,3.2-1.1,4.7c0.4,0.7,1.4,1,2.1,0.5
	c1.1-0.9,1.3-2.7,0.7-4C38.2,22.9,37.6,22.3,36.8,22.4z"/>
<path class="st2" d="M40.4,9.2c1.1-0.6,2.4-0.3,3.6,0c1.8,0.5,3.6,1.2,5,2.6c0.5,0.5,0.6,1.5-0.3,1.7c-1.8,0.3-3.7-0.2-5.4-1
	c-1.1-0.5-2.3-1.1-3-2.2C40.1,9.9,40.1,9.4,40.4,9.2z"/>
<path class="st3" d="M46.5,17.1c1.6-0.4,3.5-0.4,5,0.5c-1.8-0.6-3.9-0.1-5.3,1.2c-2.9,2.4-3.7,6.5-3.2,10.1c0.5,2.5,1.7,5,3.9,6.4
	c1.8,1.2,4.3,1.1,6.1-0.1c-1.7,1.5-4.2,2.1-6.4,1.6C44,36,42,33.9,41,31.6c-1.2-2.9-1.3-6.3,0-9.3C42,19.9,43.9,17.9,46.5,17.1z"/>
<path d="M46.1,18.8c1.4-1.2,3.5-1.7,5.3-1.2c2.8,0.9,4.6,3.7,5.2,6.5c0.8,3.9-0.2,8.6-3.6,11c-1.8,1.2-4.3,1.3-6.1,0.1
	c-2.2-1.4-3.4-3.9-3.9-6.4C42.4,25.3,43.3,21.2,46.1,18.8 M48.2,19.7c-1.9,1-3,3.1-3.3,5.1l0,0c-0.6,3.3,0.3,7.8,3.7,9.3
	c2.1,0.9,4.4-0.7,5.3-2.6c1.1-2,1.4-4.5,0.9-6.7c-0.4-1.9-1.3-3.9-3.1-4.9C50.7,19.1,49.3,19.1,48.2,19.7z"/>
<path class="st2" d="M48.2,19.7c1.1-0.6,2.5-0.5,3.5,0.1c1.8,1,2.7,3,3.1,4.9c0.5,2.2,0.2,4.7-0.9,6.7c-1.6,1.2-3.8,1.4-5.5,0.2
	c-2.3-1.5-3.3-4.3-3.5-6.9C45.2,22.7,46.3,20.6,48.2,19.7 M50.5,24.6c-0.9,1.4-0.9,3.2-0.2,4.6c0.3,0.7,1.1,1.4,1.9,1.1
	c1-0.4,1.5-1.5,1.6-2.6c-0.6-0.1-1.3-0.2-1.9-0.4c0.5-0.7,1.2-1.3,1.7-2c-0.2-0.7-0.7-1.4-1.5-1.6C51.4,23.6,50.9,24.1,50.5,24.6z"
	/>
<path class="st3" d="M36.8,22.4c0.8-0.1,1.4,0.5,1.7,1.2c0.6,1.3,0.4,3-0.7,4c-0.7,0.6-1.7,0.2-2.1-0.5C34.8,25.6,35,23,36.8,22.4z"
	/>
<path d="M50.5,24.6c0.4-0.5,1-1,1.6-0.8c0.7,0.2,1.3,0.9,1.5,1.6c-0.5,0.7-1.2,1.3-1.7,2c0.6,0.2,1.3,0.3,1.9,0.4
	c0,1-0.6,2.2-1.6,2.6c-0.8,0.2-1.6-0.4-1.9-1.1C49.6,27.7,49.6,26,50.5,24.6z"/>
<path class="st4" d="M44.9,24.7L44.9,24.7c0.2,2.7,1.3,5.4,3.5,6.9c1.6,1.1,3.9,1,5.5-0.2c-0.9,1.9-3.2,3.5-5.3,2.6
	C45.2,32.5,44.2,28.1,44.9,24.7z"/>
<path class="st2" d="M22,40.3c-3.4-2.4-4.1-3.6-4.6-4.2c-1.7-2.2-3-4.7-3.6-7.5c1.1,2,2.4,3.8,3.9,5.4"/>
<path class="st3" d="M22,40.3c3.6,2.4,7.9,3.6,12.2,4c-3.4-1.1-6.7-2.6-9.7-4.5c1-0.2,2.1-0.7,3.2-0.4c1.3,0.5,2.2,1.8,3.6,2
	c1,0.2,1.5-0.9,2.5-0.8c1.8,0.1,3.5,0.8,5.3,0.9c0.9,0.1,0.9-1.1,1.6-1.3c0.4-0.1,0.9,0,1.3,0H42c0.5,0.5,1,1,1.5,1.5
	c1-0.5,1.9-1.1,2.9-1.6c0.7,0.5,1.4,1,2.2,1.5c1.1-0.6,2.2-1.2,3.3-1.8c-8,6.8-20.4,7.5-29.4,2.2c-3.4-2-6.4-4.9-8.1-8.5
	c1,0.9,1.9,1.8,3.1,2.6c0.5,0.6,1,1.2,1.5,1.7"/>
<path class="st3" d="M48.6,39.2c3.1-1.4,5.9-3.2,8.3-5.5c-0.3,0.7-0.7,1.4-1.2,1.9c-2.2,1.2-4.4,2.4-6.6,3.5
	C49,39.2,48.8,39.4,48.6,39.2z"/>
<path class="st2" d="M22,40.3c-0.5-0.7-4.5-5.6-4.3-6.2c0.7,0.5,6.1,5.2,6.8,5.7c3,1.9,6.3,3.4,9.7,4.5C29.9,43.9,25.6,42.7,22,40.3
	z"/>
<polygon class="st0" points="27.9,28.4 10.9,41.4 10.1,28.1 34.5,28.1 "/>
<path class="st5" d="M26,29.5c1.7-1.1,3.2-2.8,3.7-4.9c0.2,1.8-0.3,3.7-1.5,5.1c-3.2,3.5-8.1,4.5-11.5,7.7c-1,0.8-1.8,1.9-2.4,3
	c-0.4,0.8-0.8,1.7-0.9,2.6c-0.1,0.2-0.1,0.3-0.2,0.5c-1.9-0.6-3.5-2.4-3.4-4.4c0-0.4,0.1-0.8,0-1.2c-0.8-1.2-1.2-2.6-1-4
	c0-0.7,0.4-1.3,0.7-2c-0.2-1.5-0.3-3.4,1-4.5c1.5-1.2,3.5-1.2,5.3-1.3c2.9-0.1,6,0.1,8.6-1.3c-3.3,2.5-7.8,1.9-11.5,3.4
	c-1.1,0.4-1.9,1.4-1.7,2.6c2.7-2.2,6.5-2.7,9.9-2.6c-3,0.7-6,1.7-8.4,3.6c-1,0.8-2.1,2.1-1.8,3.5c2.1-3.2,5.9-4.5,9.6-4.9
	c-3,1.5-6.3,3.1-8.1,6.1c-0.7,1.1-0.5,2.6,0.3,3.6c0.6-2.2,2.1-4.1,3.9-5.4C19.2,32.6,22.9,31.5,26,29.5z"/>
<polygon class="st6" points="23,28.1 5.3,33.2 9.7,20.9 32.6,20.9 "/>
<path class="st7" d="M24,28.9c2.1-0.2,4.1-1,5.5-2.6c-0.7,1.7-2,3.1-3.6,3.8c-4.4,1.7-9.3,0.3-13.8,1.6c-1.3,0.3-2.5,0.9-3.6,1.6
	c-0.7,0.5-1.5,1.1-2,1.9c-0.1,0.1-0.3,0.2-0.4,0.3c-1.4-1.4-2-3.7-1-5.5c0.2-0.4,0.5-0.7,0.6-1.1c-0.1-1.4,0.1-2.9,0.9-4
	c0.3-0.6,1-1,1.5-1.5c0.5-1.5,1.3-3.2,2.9-3.5c1.9-0.4,3.6,0.5,5.3,1.3c2.6,1.2,5.2,2.9,8.2,2.9c-4.1,0.7-7.8-1.9-11.8-2.3
	c-1.1-0.2-2.3,0.4-2.7,1.6c3.5-0.7,7,0.5,9.9,2.3c-3-0.8-6.1-1.2-9.1-0.7c-1.3,0.2-2.8,0.9-3.2,2.3c3.3-1.8,7.4-1.3,10.8,0.1
	c-3.4-0.1-7-0.1-10,1.7c-1.2,0.6-1.7,2.1-1.4,3.3c1.6-1.6,3.7-2.7,5.9-3C16.6,28.6,20.3,29.3,24,28.9z"/>
<polygon class="st6" points="31.7,28.9 6.4,18 15.2,11.2 29.2,20.7 "/>
<g class="st7">
	<path class="st8" d="M24,25.1c1.8,1,4,1.4,6,0.9c-1.5,1-3.4,1.5-5.1,1.2c-4.6-1.1-7.9-4.9-12.4-6.4c-1.2-0.5-2.5-0.6-3.8-0.7
		c-0.9,0-1.8,0.1-2.7,0.4c-0.2,0-0.4,0-0.5,0c-0.4-1.9,0.4-4.2,2.2-5.1c0.4-0.2,0.8-0.3,1.1-0.6c0.7-1.2,1.7-2.3,3-2.8
		c0.6-0.3,1.4-0.3,2-0.4c1.2-0.9,2.8-1.9,4.4-1.3c1.7,0.7,2.7,2.4,3.7,4c1.5,2.5,2.8,5.3,5.3,6.9c-3.8-1.7-5.5-5.9-8.6-8.4
		c-0.8-0.8-2.2-0.9-3.1-0.2c3.3,1.3,5.5,4.3,7,7.4c-2.1-2.3-4.4-4.4-7.2-5.7c-1.2-0.5-2.8-0.8-3.9,0.1c3.8,0.3,6.9,3,8.9,6
		c-2.8-1.9-5.8-4-9.3-4.1c-1.3-0.1-2.5,0.8-3,2c2.2-0.5,4.6-0.2,6.6,0.8C18,20.7,20.7,23.4,24,25.1z"/>
</g>
</svg>
